<svg width="164" height="30" viewBox="0 0 164 30" fill="none" xmlns="http://www.w3.org/2000/svg">
<path d="M45.2174 24.24C43.8574 24.24 42.6014 24.072 41.4494 23.736C40.3134 23.384 39.3374 22.904 38.5214 22.296L39.4814 19.872C40.0254 20.256 40.5934 20.584 41.1854 20.856C41.7774 21.112 42.4094 21.312 43.0814 21.456C43.7534 21.584 44.4654 21.648 45.2174 21.648C46.4814 21.648 47.3934 21.44 47.9534 21.024C48.5134 20.608 48.7934 20.064 48.7934 19.392C48.7934 18.8 48.6014 18.352 48.2174 18.048C47.8334 17.728 47.1454 17.464 46.1534 17.256L43.4414 16.704C41.8894 16.384 40.7294 15.848 39.9614 15.096C39.1934 14.344 38.8094 13.336 38.8094 12.072C38.8094 11.016 39.0894 10.096 39.6494 9.312C40.2094 8.528 40.9934 7.92 42.0014 7.488C43.0094 7.056 44.1854 6.84 45.5294 6.84C46.7294 6.84 47.8414 7.016 48.8654 7.368C49.8894 7.704 50.7454 8.192 51.4334 8.832L50.4734 11.136C49.7854 10.56 49.0334 10.136 48.2174 9.864C47.4014 9.576 46.4894 9.432 45.4814 9.432C44.3454 9.432 43.4574 9.656 42.8174 10.104C42.1934 10.536 41.8814 11.136 41.8814 11.904C41.8814 12.496 42.0734 12.968 42.4574 13.32C42.8574 13.672 43.5294 13.944 44.4734 14.136L47.1614 14.664C48.7614 14.984 49.9454 15.512 50.7134 16.248C51.4814 16.968 51.8654 17.944 51.8654 19.176C51.8654 20.184 51.5934 21.072 51.0494 21.84C50.5054 22.592 49.7374 23.184 48.7454 23.616C47.7534 24.032 46.5774 24.24 45.2174 24.24ZM60.0142 24.24C58.7662 24.24 57.6862 23.984 56.7742 23.472C55.8622 22.96 55.1502 22.232 54.6382 21.288C54.1422 20.344 53.8942 19.224 53.8942 17.928C53.8942 16.632 54.1422 15.52 54.6382 14.592C55.1502 13.648 55.8622 12.92 56.7742 12.408C57.6862 11.896 58.7662 11.64 60.0142 11.64C61.2622 11.64 62.3422 11.896 63.2542 12.408C64.1822 12.92 64.8942 13.648 65.3902 14.592C65.9022 15.52 66.1582 16.632 66.1582 17.928C66.1582 19.224 65.9022 20.344 65.3902 21.288C64.8942 22.232 64.1822 22.96 63.2542 23.472C62.3422 23.984 61.2622 24.24 60.0142 24.24ZM60.0142 21.936C60.9582 21.936 61.7102 21.608 62.2702 20.952C62.8302 20.28 63.1102 19.272 63.1102 17.928C63.1102 16.584 62.8302 15.584 62.2702 14.928C61.7102 14.272 60.9582 13.944 60.0142 13.944C59.0702 13.944 58.3182 14.272 57.7582 14.928C57.1982 15.584 56.9182 16.584 56.9182 17.928C56.9182 19.272 57.1982 20.28 57.7582 20.952C58.3182 21.608 59.0702 21.936 60.0142 21.936ZM75.6813 24.24C74.6573 24.24 73.7613 23.992 72.9933 23.496C72.2253 22.984 71.7133 22.296 71.4573 21.432H71.7213V24H68.7453V6.336H71.7453V14.352H71.4573C71.7293 13.52 72.2493 12.864 73.0173 12.384C73.7853 11.888 74.6733 11.64 75.6813 11.64C76.7533 11.64 77.6893 11.896 78.4893 12.408C79.2893 12.92 79.9133 13.648 80.3613 14.592C80.8093 15.52 81.0333 16.64 81.0333 17.952C81.0333 19.264 80.8093 20.392 80.3613 21.336C79.9133 22.264 79.2813 22.984 78.4653 23.496C77.6653 23.992 76.7373 24.24 75.6813 24.24ZM74.8413 21.936C75.7853 21.936 76.5453 21.608 77.1213 20.952C77.7133 20.296 78.0093 19.296 78.0093 17.952C78.0093 16.608 77.7133 15.608 77.1213 14.952C76.5453 14.28 75.7853 13.944 74.8413 13.944C73.8973 13.944 73.1373 14.272 72.5613 14.928C71.9853 15.584 71.6973 16.584 71.6973 17.928C71.6973 19.272 71.9853 20.28 72.5613 20.952C73.1373 21.608 73.8973 21.936 74.8413 21.936ZM83.6041 24V14.976C83.6041 14.464 83.5881 13.944 83.5561 13.416C83.5401 12.888 83.5001 12.376 83.4361 11.88H86.3401L86.6761 15.192H86.1961C86.3561 14.392 86.6201 13.728 86.9881 13.2C87.3721 12.672 87.8361 12.28 88.3801 12.024C88.9241 11.768 89.5161 11.64 90.1561 11.64C90.4441 11.64 90.6761 11.656 90.8521 11.688C91.0281 11.704 91.2041 11.744 91.3801 11.808L91.3561 14.448C91.0521 14.32 90.7881 14.24 90.5641 14.208C90.3561 14.176 90.0921 14.16 89.7721 14.16C89.0841 14.16 88.5001 14.304 88.0201 14.592C87.5561 14.88 87.2041 15.28 86.9641 15.792C86.7401 16.304 86.6281 16.888 86.6281 17.544V24H83.6041ZM97.6128 24.24C96.5568 24.24 95.6288 23.992 94.8288 23.496C94.0288 22.984 93.4048 22.256 92.9568 21.312C92.5088 20.368 92.2848 19.24 92.2848 17.928C92.2848 16.616 92.5088 15.496 92.9568 14.568C93.4048 13.624 94.0288 12.904 94.8288 12.408C95.6288 11.896 96.5568 11.64 97.6128 11.64C98.6368 11.64 99.5328 11.896 100.301 12.408C101.085 12.904 101.605 13.576 101.861 14.424H101.597L101.861 11.88H104.741C104.693 12.376 104.645 12.88 104.597 13.392C104.565 13.904 104.549 14.408 104.549 14.904V24H101.573L101.549 21.504H101.837C101.581 22.336 101.061 23 100.277 23.496C99.4928 23.992 98.6048 24.24 97.6128 24.24ZM98.4528 21.936C99.3968 21.936 100.157 21.608 100.733 20.952C101.309 20.28 101.597 19.272 101.597 17.928C101.597 16.584 101.309 15.584 100.733 14.928C100.157 14.272 99.3968 13.944 98.4528 13.944C97.5088 13.944 96.7488 14.272 96.1728 14.928C95.5968 15.584 95.3088 16.584 95.3088 17.928C95.3088 19.272 95.5888 20.28 96.1488 20.952C96.7248 21.608 97.4928 21.936 98.4528 21.936ZM115.928 24.24C114.168 24.24 112.656 23.888 111.392 23.184C110.144 22.464 109.184 21.456 108.512 20.16C107.84 18.848 107.504 17.304 107.504 15.528C107.504 13.752 107.84 12.216 108.512 10.92C109.184 9.624 110.144 8.624 111.392 7.92C112.656 7.2 114.168 6.84 115.928 6.84C117.112 6.84 118.176 7.008 119.12 7.344C120.08 7.68 120.904 8.176 121.592 8.832L120.584 11.28C119.832 10.672 119.104 10.24 118.4 9.984C117.712 9.712 116.92 9.576 116.024 9.576C114.312 9.576 113 10.096 112.088 11.136C111.192 12.16 110.744 13.624 110.744 15.528C110.744 17.432 111.192 18.904 112.088 19.944C113 20.984 114.312 21.504 116.024 21.504C116.92 21.504 117.712 21.376 118.4 21.12C119.104 20.848 119.832 20.4 120.584 19.776L121.592 22.224C120.904 22.864 120.08 23.36 119.12 23.712C118.176 24.064 117.112 24.24 115.928 24.24ZM128.503 24.24C127.447 24.24 126.519 23.992 125.719 23.496C124.919 22.984 124.295 22.256 123.847 21.312C123.399 20.368 123.175 19.24 123.175 17.928C123.175 16.616 123.399 15.496 123.847 14.568C124.295 13.624 124.919 12.904 125.719 12.408C126.519 11.896 127.447 11.64 128.503 11.64C129.527 11.64 130.423 11.896 131.191 12.408C131.975 12.904 132.495 13.576 132.751 14.424H132.487L132.751 11.88H135.631C135.583 12.376 135.535 12.88 135.487 13.392C135.455 13.904 135.439 14.408 135.439 14.904V24H132.463L132.439 21.504H132.727C132.471 22.336 131.951 23 131.167 23.496C130.383 23.992 129.495 24.24 128.503 24.24ZM129.343 21.936C130.287 21.936 131.047 21.608 131.623 20.952C132.199 20.28 132.487 19.272 132.487 17.928C132.487 16.584 132.199 15.584 131.623 14.928C131.047 14.272 130.287 13.944 129.343 13.944C128.399 13.944 127.639 14.272 127.063 14.928C126.487 15.584 126.199 16.584 126.199 17.928C126.199 19.272 126.479 20.28 127.039 20.952C127.615 21.608 128.383 21.936 129.343 21.936ZM143.026 24.24C141.986 24.24 141.026 24.12 140.146 23.88C139.282 23.624 138.554 23.272 137.962 22.824L138.802 20.808C139.41 21.224 140.082 21.544 140.818 21.768C141.554 21.992 142.298 22.104 143.05 22.104C143.85 22.104 144.442 21.968 144.826 21.696C145.226 21.424 145.426 21.056 145.426 20.592C145.426 20.224 145.298 19.936 145.042 19.728C144.802 19.504 144.41 19.336 143.866 19.224L141.466 18.768C140.442 18.544 139.658 18.16 139.114 17.616C138.586 17.072 138.322 16.36 138.322 15.48C138.322 14.728 138.522 14.064 138.922 13.488C139.338 12.912 139.922 12.464 140.674 12.144C141.442 11.808 142.338 11.64 143.362 11.64C144.258 11.64 145.098 11.76 145.882 12C146.682 12.24 147.354 12.6 147.898 13.08L147.034 15.024C146.538 14.624 145.97 14.312 145.33 14.088C144.69 13.864 144.066 13.752 143.458 13.752C142.626 13.752 142.018 13.904 141.634 14.208C141.25 14.496 141.058 14.872 141.058 15.336C141.058 15.688 141.17 15.984 141.394 16.224C141.634 16.448 142.002 16.616 142.498 16.728L144.898 17.184C145.97 17.392 146.778 17.76 147.322 18.288C147.882 18.8 148.162 19.504 148.162 20.4C148.162 21.2 147.946 21.888 147.514 22.464C147.082 23.04 146.482 23.48 145.714 23.784C144.946 24.088 144.05 24.24 143.026 24.24ZM150.73 24V6.336H153.73V14.304H153.394C153.762 13.44 154.33 12.784 155.098 12.336C155.866 11.872 156.746 11.64 157.738 11.64C159.178 11.64 160.25 12.048 160.954 12.864C161.658 13.664 162.01 14.888 162.01 16.536V24H159.01V16.68C159.01 15.736 158.826 15.056 158.458 14.64C158.106 14.208 157.538 13.992 156.754 13.992C155.842 13.992 155.106 14.28 154.546 14.856C154.002 15.416 153.73 16.168 153.73 17.112V24H150.73Z" fill="white"/>
<path d="M16.043 21.5823C13.8667 20.7739 11.6281 20.6496 9.57614 21.2092C8.14596 21.5823 6.77796 22.3285 5.53432 23.2612L4.66376 24.0074L4.41504 24.2561L4.97467 24.7535C5.03685 24.7535 5.03686 24.8157 5.09904 24.8779C5.22341 25.0023 5.34778 25.0645 5.53432 25.1888L5.9074 25.4375L6.28049 25.1266C6.34268 25.0645 6.46704 24.9401 6.5914 24.8779C7.71068 23.9452 8.95431 23.3234 10.2601 23.0125C11.939 22.5772 13.7423 22.6394 15.5456 23.3234C17.0379 23.883 20.0849 24.567 23.7536 23.0125L23.878 22.9503L24.0645 22.7637C24.0645 22.7016 24.1267 22.7015 24.1889 22.6394C24.4998 22.2663 24.8107 21.8932 25.0594 21.4579L26.303 19.5303L24.3132 20.6495C21.3907 22.2663 18.7169 22.5772 16.043 21.5823Z" fill="#55B02E"/>
<path d="M7.52364 14.8665C9.20255 14.4312 11.0058 14.4934 12.8091 15.1774C14.7989 15.9236 19.8978 16.9807 25.6186 11.8196L26.5513 10.8868L26.6135 10.8247L26.8622 10.5759L26.7378 10.265C26.6756 10.0163 26.5513 9.7054 26.4269 9.39449L26.116 8.52393L25.4942 9.14574C25.432 9.27011 25.3076 9.33229 25.1833 9.45665C22.4473 12.2548 18.2189 15.1152 13.3687 13.3741C11.1924 12.5658 8.95382 12.4414 6.90182 13.001C4.91201 13.5607 3.17091 14.6178 1.55418 16.1101V16.0479L0.621456 17.0428C0.621456 17.105 0.559286 17.105 0.497104 17.1672L0.310547 17.3538L0.372732 17.6025C0.434914 17.9134 0.559274 18.2243 0.621456 18.5352L0.994551 19.5301L1.61637 18.7218C1.67855 18.5974 1.80291 18.5352 1.86509 18.4109C3.17091 17.2294 4.97419 15.5505 7.52364 14.8665Z" fill="#55B02E"/>
<path d="M1.49238 13.7472C2.92256 12.2548 4.53928 11.3221 6.28037 10.8246C7.95928 10.3893 9.76255 10.4515 11.5658 11.1355C17.1622 13.1875 22.0124 9.82971 24.1266 8.02644L24.9349 7.21808L25.2458 6.96934L24.9971 6.59626C24.8106 6.40972 24.6862 6.16099 24.4997 5.91226L24.1266 5.41479L23.6913 5.85008C23.6291 5.91226 23.5047 6.03662 23.4426 6.0988C20.8309 8.58607 16.7891 11.1355 12.1876 9.39445C10.0113 8.58608 7.77273 8.46172 5.72074 9.02135C4.41492 9.39444 3.17128 10.0163 1.92764 10.8246L0.621818 11.8817C0.497455 12.0061 0.435273 12.0683 0.310909 12.1926L0.186557 12.317V12.5035C0.124375 12.9388 0.124367 13.3741 0.0621856 13.7472L0 15.3017L1.0571 14.1824C1.18146 14.0581 1.30583 13.8715 1.49238 13.7472Z" fill="#55B02E"/>
<path d="M17.8466 25.8105L17.7222 26.1836L17.8466 25.8105C17.66 25.7483 17.5357 25.6861 17.3491 25.624C15.1728 24.8156 12.9342 24.6913 10.8822 25.2509C10.4469 25.3753 10.0117 25.4996 9.57639 25.6862L8.08401 26.3702L7.71094 26.5567L8.95457 26.992C9.32766 27.1163 9.70075 27.2407 10.0738 27.3651L10.2604 27.4273L10.4469 27.3651C10.6335 27.3029 10.82 27.1785 11.0066 27.1785C11.1309 27.1785 11.2553 27.1163 11.3797 27.0542C12.872 26.6811 14.4887 26.6811 16.2298 27.2407C16.4164 27.3029 16.5408 27.3651 16.7273 27.4273L17.0382 27.5516L17.2247 27.4894C17.66 27.3651 18.1575 27.2407 18.5306 27.0542L20.2717 26.4323L18.4684 25.9971C18.2818 25.9349 18.0331 25.8727 17.8466 25.8105Z" fill="#55B02E"/>
<path d="M27.3597 12.939L26.427 13.8717C26.3027 13.9961 26.1783 14.1204 26.0539 14.2448C23.5045 16.6699 19.4005 19.2815 14.799 17.5404C12.6227 16.7321 10.3841 16.6077 8.33213 17.1673C6.40449 17.727 4.66338 18.7219 3.10884 20.2142L2.30048 21.0848L2.05176 21.3957L2.30048 21.7688C2.48703 22.0175 2.6114 22.2041 2.73576 22.4528L3.10884 23.0124L3.54412 22.4528C3.6063 22.3906 3.73066 22.2662 3.79284 22.2041C5.2852 20.5873 6.90193 19.5924 8.76739 19.095C10.4463 18.6597 12.2496 18.7219 14.0528 19.4059C15.6074 19.9655 17.2241 20.1521 18.8408 19.9655C21.7012 19.6546 24.5616 18.0379 26.6758 16.2346C26.8001 16.1102 26.9245 16.0481 27.0488 15.9237L27.2354 15.7371V15.5506C27.2354 15.1775 27.2976 14.7422 27.2976 14.3692L27.3597 12.939Z" fill="#55B02E"/>
<path d="M3.73045 7.21814L3.54391 6.84504L3.73045 7.21814C4.10354 7.03159 4.53883 6.90722 4.91192 6.78286C6.59083 6.34758 8.3941 6.40976 10.1974 7.09376C11.3788 7.52904 12.5603 7.71558 13.8661 7.71558C16.4777 7.71558 19.0894 6.78286 21.5145 4.97959L22.4472 4.2334L22.7581 3.98467L22.1985 3.54939C22.0119 3.36285 21.7632 3.17631 21.5145 3.05195L21.1414 2.80322L20.8305 3.05195C20.7061 3.11413 20.6439 3.23849 20.5195 3.30067C17.2239 5.78794 13.9283 6.47195 10.8192 5.2905C8.58065 4.48213 6.34209 4.29559 4.10355 4.97959C3.917 5.04177 3.73045 5.10394 3.48173 5.16612L3.35738 5.22831L3.17082 5.41485C3.17082 5.47703 3.10865 5.47704 3.04647 5.53922C2.79774 5.91231 2.48682 6.22323 2.23809 6.59632L1.05664 8.39959L2.98428 7.40467C3.29519 7.40467 3.54391 7.28032 3.73045 7.21814Z" fill="#55B02E"/>
<path d="M8.82967 2.98981L9.01621 3.05199C9.82457 3.3629 11.0682 3.67381 12.6228 3.67381C14.2395 3.67381 15.794 3.30072 17.3486 2.6789L19.2762 1.74617L17.9704 1.31091C17.5973 1.18655 17.2242 1.06218 16.7889 1H16.6024L16.4159 1.06217C16.2293 1.12435 16.0428 1.24873 15.8562 1.31091C13.9908 1.99491 12.1253 2.11927 10.322 1.62182C10.1355 1.55964 9.94894 1.49744 9.7624 1.43526L9.57586 1.37308L9.3893 1.43526C9.01621 1.55962 8.64313 1.684 8.27004 1.87054L6.83984 2.49236L8.33222 2.92762C8.45659 2.86544 8.64312 2.92762 8.82967 2.98981Z" fill="#55B02E"/>
</svg>
